<?xml version="1.0" encoding="UTF-8"?><svg id="Layer_1" xmlns="http://www.w3.org/2000/svg" viewBox="0 0 827.17 2656.69"><defs><style>.cls-1{fill:#ff6033;}.cls-2{fill:none;stroke:#000;stroke-miterlimit:10;stroke-width:1.84px;}</style></defs><g id="Layer_1-2"><polygon class="cls-1" points="296.67 1502.71 296.67 1400.19 207.89 1348.93 119.1 1400.19 119.1 1502.71 207.89 1553.97 296.67 1502.71"/><polygon class="cls-1" points="179.34 1335.49 179.34 1232.97 90.55 1181.71 1.77 1232.97 1.77 1335.49 90.55 1386.75 179.34 1335.49"/><polygon class="cls-1" points="235.47 1118.75 235.47 1051.16 176.93 1017.37 118.4 1051.16 118.4 1118.75 176.93 1152.55 235.47 1118.75"/><ellipse class="cls-1" cx="90.55" cy="1462.3" rx="2.39" ry="83.93"/><polygon class="cls-1" points="469.41 834.68 469.41 683.78 338.29 608.33 207.17 683.78 207.17 834.68 338.29 910.12 469.41 834.68"/><ellipse class="cls-1" cx="338.29" cy="533.32" rx="2.39" ry="83.93"/><path class="cls-2" d="m.92,2656.69V10.58v2646.11h0Z"/><path class="cls-2" d="m470.25,2656.69V10.58v2646.11h0Z"/><path class="cls-2" d="m207.89,1348.93l-.32-1338.35.32,1338.35Z"/><path class="cls-2" d="m207.73,2656.69v-1102.72,1102.72Z"/><path class="cls-2" d="m59.59,2656.69V10.58v2646.11h0Z"/><path class="cls-2" d="m118.25,2656.69V10.58v2646.11h0Z"/></g><path class="cls-2" d="m804.25,2656.69V10.58v2646.11Z"/></svg>